<?xml version="1.0" encoding="UTF-8" standalone="no"?>
<!-- Generator: Adobe Illustrator 12.0.0, SVG Export Plug-In . SVG Version: 6.00 Build 51448)  -->
<svg enable-background="new 0 0 121 120" height="128" viewBox="0 0 121 120" width="128" xmlns="http://www.w3.org/2000/svg" xmlns:xlink="http://www.w3.org/1999/xlink">
  <defs>
    <linearGradient id="linearGradient5919">
      <stop offset="0" stop-color="#fff"/>
      <stop offset=".5" stop-color="#78c9ff" stop-opacity=".498039"/>
      <stop offset="1" stop-color="#fff" stop-opacity="0"/>
    </linearGradient>
    <filter id="filter5956">
      <feGaussianBlur stdDeviation=".55418773"/>
    </filter>
    <filter id="filter6074">
      <feGaussianBlur stdDeviation="1.9142018"/>
    </filter>
    <clipPath id="clipPath6080">
      <path d="m-135.842 93.331604a30.690229 30.690229 0 1 1 -61.38046 0 30.690229 30.690229 0 1 1 61.38046 0z" filter="url(#filter6074)"/>
    </clipPath>
    <radialGradient id="radialGradient6084" cx="-166.53223" cy="65.938202" gradientTransform="matrix(1 0 0 .6578174 0 22.562908)" gradientUnits="userSpaceOnUse" r="31.190229">
      <stop offset="0" stop-color="#fff"/>
      <stop offset="1" stop-color="#fff" stop-opacity="0"/>
    </radialGradient>
    <radialGradient id="radialGradient4150" cx="87.160835" cy="48.36097" gradientTransform="matrix(1.4591887 0 0 1 -40.023272 0)" gradientUnits="userSpaceOnUse" r="27.455904">
      <stop offset="0" stop-color="#020910"/>
      <stop offset="1" stop-color="#113e69" stop-opacity="0"/>
    </radialGradient>
    <radialGradient id="radialGradient4166" cx="-166.53223" cy="84.275475" gradientTransform="matrix(0 1 -1 0 -39.9985 140.0029)" gradientUnits="userSpaceOnUse" r="31.190229">
      <stop offset="0" stop-color="#0081ec"/>
      <stop offset="1" stop-color="#003871"/>
    </radialGradient>
    <radialGradient id="radialGradient4170" cx="-166.53223" cy="116.62209" gradientTransform="matrix(0 1 -1 0 -39.9985 140.0029)" gradientUnits="userSpaceOnUse" r="31.190229">
      <stop offset="0" stop-color="#0081ec"/>
      <stop offset="1" stop-color="#004c98"/>
    </radialGradient>
    <linearGradient id="linearGradient2951" gradientUnits="userSpaceOnUse" x1="50.10156829441" x2="50.10156829441" xlink:href="#linearGradient5919" y1="-1.94521179407" y2="66.11728085366"/>
    <linearGradient id="linearGradient2954" gradientUnits="userSpaceOnUse" x1="95.47655025362" x2="16.38493485278" xlink:href="#linearGradient5919" y1="81.24228494289" y2="33.6664163117"/>
    <linearGradient id="linearGradient2957" gradientUnits="userSpaceOnUse" x1="52.71800226043" x2="52.71800226043" xlink:href="#linearGradient5919" y1="-114.49952547321" y2="72.16630474184"/>
    <linearGradient id="linearGradient2961" gradientUnits="userSpaceOnUse" x1="65.22656620171" x2="72.78905203376" xlink:href="#linearGradient5919" y1="-5.72646883775" y2="85.02353538358"/>
    <filter id="filter3603" height="1.202678" width="1.202678" x="-.101339" y="-.101339">
      <feGaussianBlur stdDeviation="2.3133455"/>
    </filter>
    <radialGradient id="radialGradient3706" cx="60.898434" cy="59.67033" gradientTransform="matrix(1 0 0 .9359526 0 3.821729)" gradientUnits="userSpaceOnUse" r="37.265621" xlink:href="#XMLID_293_"/>
    <filter id="filter3734">
      <feGaussianBlur stdDeviation=".3780858"/>
    </filter>
    <filter id="filter3742">
      <feGaussianBlur stdDeviation=".56730577"/>
    </filter>
    <clipPath id="clipPath3746">
      <path d="m-227.14395 155.37648c-.30684.03844-.60707.16988-.89256.33471l-20.6033 11.90083c-1.14195.6593-1.51468 2.09358-.85537 3.23553s2.09358 1.51468 3.23553.85537l20.60331-11.90082c1.14195-.65931 1.55186-2.09359.89256-3.23554-.49447-.85646-1.45966-1.30542-2.38017-1.19008zm-40.42561 2.89871-19.23967 20h-4v-4h-8v32h8v-4h4l19.23967 20.13599h4.76033v-64.13599zm21.42148 31.61368c-1.31862 0-2.38017 1.06156-2.38017 2.38017s1.06155 2.38017 2.38017 2.38017h23.80165c1.31862 0 2.38016-1.06156 2.38016-2.38017s-1.06154-2.38017-2.38016-2.38017zm-1.4504 22.61157c-.76159.05324-1.48464.47636-1.8967 1.19008-.65931 1.14195-.28658 2.57624.85537 3.23555l20.6033 11.90081c1.14195.65931 2.61342.28659 3.27273-.85536.6593-1.14196.24939-2.57623-.89256-3.23554l-20.60331-11.90082c-.42823-.24725-.8819-.36666-1.33883-.33472z"/>
    </clipPath>
    <radialGradient cx="60.898434" cy="59.67033" gradientTransform="matrix(1.0578512 0 0 .9900986 -323.80924 132.37576)" gradientUnits="userSpaceOnUse" r="37.265621" xlink:href="#XMLID_293_"/>
    <clipPath id="clipPath3752">
      <path d="m-129.70083 153.30082c-.30684.03844-.60707.16988-.89256.33471l-20.6033 11.90082c-1.14195.65931-1.51468 2.09359-.85537 3.23554s2.09358 1.51468 3.23553.85537l20.60331-11.90082c1.14195-.65931 1.55186-2.09359.89256-3.23554-.49447-.85646-1.45966-1.30542-2.38017-1.19008zm-40.42561 2.89871-19.23967 20h-4v-4h-8v32h8v-4h4l19.23967 20.13599h4.76033v-64.13599zm21.42149 31.61368c-1.31863 0-2.38018 1.06156-2.38018 2.38017s1.06155 2.38016 2.38018 2.38016h23.80164c1.31862 0 2.38016-1.06155 2.38016-2.38016s-1.06154-2.38017-2.38016-2.38017zm-1.45041 22.61157c-.76159.05324-1.48463.47636-1.8967 1.19008-.65931 1.14195-.28658 2.57624.85537 3.23554l20.6033 11.90082c1.14195.65931 2.61342.28658 3.27273-.85537.6593-1.14195.24939-2.57623-.89256-3.23553l-20.60331-11.90083c-.42823-.24724-.8819-.36665-1.33883-.33471z"/>
    </clipPath>
    <radialGradient cx="60.898434" cy="59.67033" gradientTransform="matrix(1.0578512 0 0 .9900986 -226.36612 130.3001)" gradientUnits="userSpaceOnUse" r="37.265621" xlink:href="#XMLID_293_"/>
    <linearGradient id="XMLID_293_" gradientUnits="userSpaceOnUse" x1="55.473099" x2="56.5452" y1="80.032204" y2="79.281601">
      <stop offset="0" stop-color="#ddd"/>
      <stop offset=".5" stop-color="#fff"/>
      <stop offset=".94080001" stop-color="#f4f4f4"/>
    </linearGradient>
  </defs>
  <g transform="translate(2.835938 -2.336035)">
    <path d="m114.55424 39.742821a27.393404 27.393404 0 1 1 -54.786809 0 27.393404 27.393404 0 1 1 54.786809 0z" fill="url(#radialGradient4150)" filter="url(#filter3603)" transform="matrix(1.6748253 0 0 1.2078067 -88.31511 37.967204)"/>
    <path d="m-135.842 93.331604a30.690229 30.690229 0 1 1 -61.38046 0 30.690229 30.690229 0 1 1 61.38046 0z" fill="url(#radialGradient4166)" transform="matrix(-1.8481044 0 0 1.8481044 -250.07029 -113.93177)"/>
    <path clip-path="url(#clipPath6080)" d="m-135.842 93.331604a30.690229 30.690229 0 1 1 -61.38046 0 30.690229 30.690229 0 1 1 61.38046 0z" fill="url(#radialGradient6084)" filter="url(#filter6074)" transform="matrix(-1.8481044 0 0 1.8481044 -250.07029 -113.93177)"/>
    <path d="m-135.842 93.331604a30.690229 30.690229 0 1 1 -61.38046 0 30.690229 30.690229 0 1 1 61.38046 0z" fill="url(#radialGradient4170)" transform="matrix(-1.714704 0 0 1.714704 -227.85481 -101.72212)"/>
    <path d="m57.693445 5.7081177c-29.048821 0-52.6025239 23.5537163-52.6025239 52.6025313 0 2.704326.17156 5.38038.56562 7.975222.00276.018226-.00279.038334 0 .056562 11.0603939 1.769075 22.8387759 2.65841 35.0683359 2.65841 26.127349 0 50.244333-4.365945 69.571093-11.708309-.54339-28.579373-23.893983-51.5844125-52.602525-51.5844163z" fill="url(#linearGradient2961)" opacity=".892193"/>
    <path d="m-134.09375 98.625c-.00282.166656-.03125.332675-.03125.5 0 16.04925 13.0445 29.0625 29.09375 29.0625 16.049249 0 29.062503-13.01325 29.0625-29.0625 0-.167107.002813-.33356 0-.5-.267346 15.81875-13.180358 28.5625-29.0625 28.5625-15.88193 0-28.79481-12.74404-29.0625-28.5625z" fill="#007fea" filter="url(#filter5956)" transform="matrix(-1.8099795 0 0 1.8099795 -132.43953 -120.55013)"/>
    <path d="m57.661853 5.745502c-29.048802 0-52.6025219 23.55372-52.6025219 52.602541 0 .26641-.00339.526041 0 .791858.54289-28.57886 23.8939799-51.5844243 52.6025219-51.5844051 28.098024 0 51.072437 22.0426091 52.545977 49.7744301.01635-.006204.04021.006204.05656 0-.54339-28.579377-23.893995-51.5844049-52.602537-51.584424z" fill="url(#linearGradient2957)"/>
    <path d="m77.3735 9.5145923c17.451568 8.3188647 31.80136 26.7912627 32.19157 47.3148377-19.326755 7.342381-46.660176 11.388616-72.787525 11.388635-10.174841.215665-20.026134-.136877-31.1810439-1.915364.00273.018226-.0028.038334 0 .056562 11.0603699 1.769056 22.8387899 2.658391 35.0683499 2.658391 26.12735 0 50.244333-4.365909 69.571089-11.70829-.41135-21.634177-13.881839-40.110069-32.86244-47.7947717z" fill="url(#linearGradient2954)"/>
    <path d="m57.661853 5.745502c-29.048802 0-52.6025219 23.55372-52.6025219 52.602541 0 .26641-.00339.526041 0 .791858.54289-28.57886 23.8939799-52.3084161 52.6025219-52.308397 28.098024 0 51.072437 22.766601 52.545977 50.498422.01635-.006204.04021.006204.05656 0-.54339-28.579377-23.893995-51.5844049-52.602537-51.584424z" fill="url(#linearGradient2951)"/>
    <path d="m91.378904 25.564597c-.290054.036342-.573871.160594-.843751.316406l-19.476562 11.25c-1.079499.62325-1.431837 1.979093-.808589 3.058594.62325 1.079501 1.97909 1.431843 3.058589.808594l19.476562-11.25c1.079499-.62325 1.466999-1.979093.843751-3.058594-.467433-.809625-1.37983-1.234026-2.25-1.125zm-38.214842 2.740188-18.1875 18.90625h-3.78125v-3.78125h-7.5625v30.25h7.5625v-3.78125h3.78125l18.1875 19.034808h4.5v-60.628558zm20.249999 29.884812c-1.246501 0-2.250001 1.0035-2.250001 2.25s1.0035 2.25 2.250001 2.25h22.499999c1.246503 0 2.249999-1.0035 2.249999-2.25s-1.003496-2.25-2.249999-2.25zm-1.371089 21.374996c-.719939.05033-1.403441.45031-1.79297 1.125-.623248 1.0795-.27091 2.43535.808589 3.0586l19.476562 11.24999c1.079499.62325 2.470507.27091 3.093751-.80859.623248-1.0795.235748-2.43534-.843751-3.05859l-19.476562-11.25c-.40481-.23372-.833669-.3466-1.265619-.31641z" fill="url(#radialGradient3706)"/>
    <g transform="translate(262.83564)">
      <path clip-path="url(#clipPath3752)" d="m-127.25 155.40625c-.20367.4198-.53147.77879-.96875 1.03125l-20.59375 11.90625c-1.14195.65931-2.59069.2982-3.25-.84375-.04121-.07137-.06054-.14535-.09375-.21875-.33005.68153-.31832 1.50503.09375 2.21875.65931 1.14196 2.10805 1.50306 3.25.84375l20.59375-11.90625c1.08289-.6252 1.48992-1.9224.96875-3.03125zm-23.625 34.53125c-.1379.30178-.21875.61415-.21875.96875 0 1.31861 1.05638 2.40625 2.375 2.40625h23.8125c1.31862-.00001 2.375-1.08764 2.375-2.40625 0-.3546-.08086-.66697-.21875-.96875-.38014.80689-1.20206 1.375-2.15625 1.375h-23.8125c-.95419 0-1.77611-.56811-2.15625-1.375zm-42.5 9v2h4l19.25 20.125h4.75v-2h-4.75l-19.25-20.125zm-8 4v2h8v-2zm49.21875 9.625c-.49812 1.10092-.10183 2.3819.96875 3l20.59375 11.90625c1.14195.65931 2.62194.2982 3.28125-.84375.40654-.70416.38999-1.51128.0625-2.1875-.02843.06048-.0284.12843-.0625.1875-.65931 1.14195-2.1393 1.50305-3.28125.84375l-20.59375-11.90625c-.42823-.24724-.77072-.59108-.96875-1z" fill="#fff" filter="url(#filter3734)" transform="matrix(.9453125 0 0 .9453125 -48.893037 -119.35258)"/>
      <path clip-path="url(#clipPath3746)" d="m-226.8125 154c-.11545-.00291-.22869.01683-.34375.03125-.30684.03844-.58951.17892-.875.34375l-20.59375 11.875c-1.07057.61809-1.46687 1.93032-.96875 3.03125.19803-.40892.54052-.78401.96875-1.03125l20.59375-11.875c.28549-.16483.56816-.30531.875-.34375.92051-.11534 1.91178.33103 2.40625 1.1875.0341.05907.03407.12702.0625.1875.32822-.67651.34435-1.48282-.0625-2.1875-.43267-.7494-1.25433-1.19837-2.0625-1.21875zm-40.75 2.9375-19.25 20h-4v2h4l19.25-20h4.75v-2zm-31.25 16v2h8v-2zm52.65625 15.59375c-1.31863-.00001-2.375 1.05639-2.375 2.375 0 .36443.07356.72307.21875 1.03125.37488-.8204 1.19223-1.40625 2.15625-1.40625h23.8125c.96402 0 1.78138.58585 2.15625 1.40625.14519-.30818.21875-.66682.21875-1.03125 0-1.31861-1.05638-2.375-2.375-2.375zm-1.4375 22.625c-.76159.05325-1.49419.47378-1.90625 1.1875-.41207.71372-.4238 1.53722-.09375 2.21875.03321-.0734.05254-.14738.09375-.21875.41206-.71372 1.14466-1.13426 1.90625-1.1875.45694-.03194.91552.09651 1.34375.34375l20.59375 11.875c.4378.25276.76514.64207.96875 1.0625.52117-1.10886.11413-2.4373-.96875-3.0625l-20.59375-11.875c-.42823-.24724-.88681-.37569-1.34375-.34375z" fill-opacity=".730769" filter="url(#filter3742)" transform="matrix(.9453125 0 0 .9453125 43.218506 -121.31473)"/>
    </g>
  </g>
</svg>
